<mxfile host="Electron" agent="Mozilla/5.0 (Windows NT 10.0; Win64; x64) AppleWebKit/537.36 (KHTML, like Gecko) draw.io/26.1.1 Chrome/132.0.6834.210 Electron/34.3.3 Safari/537.36" version="26.1.1">
  <diagram name="Página-1" id="kc0S-s18xJP4o5Txpv5W">
    <mxGraphModel dx="2877" dy="1375" grid="1" gridSize="10" guides="1" tooltips="1" connect="1" arrows="1" fold="1" page="1" pageScale="1" pageWidth="1169" pageHeight="827" math="0" shadow="0">
      <root>
        <mxCell id="0" />
        <mxCell id="1" parent="0" />
        <mxCell id="cSSFdk-GtkJdgTOAY-pE-3" value="Gerar relatório de fechamento de caixa" style="ellipse;whiteSpace=wrap;html=1;aspect=fixed;" vertex="1" parent="1">
          <mxGeometry x="490" y="180" width="90" height="90" as="geometry" />
        </mxCell>
        <mxCell id="cSSFdk-GtkJdgTOAY-pE-4" value="Diretor" style="rounded=0;whiteSpace=wrap;html=1;" vertex="1" parent="1">
          <mxGeometry x="160" y="180" width="120" height="60" as="geometry" />
        </mxCell>
        <mxCell id="cSSFdk-GtkJdgTOAY-pE-10" value="" style="curved=1;endArrow=classic;html=1;rounded=0;" edge="1" parent="1">
          <mxGeometry width="50" height="50" relative="1" as="geometry">
            <mxPoint x="280" y="180" as="sourcePoint" />
            <mxPoint x="490" y="170" as="targetPoint" />
            <Array as="points">
              <mxPoint x="270" y="170" />
              <mxPoint x="400" y="130" />
            </Array>
          </mxGeometry>
        </mxCell>
        <mxCell id="cSSFdk-GtkJdgTOAY-pE-11" value="" style="curved=1;endArrow=classic;html=1;rounded=0;entryX=1;entryY=1;entryDx=0;entryDy=0;exitX=0;exitY=1;exitDx=0;exitDy=0;" edge="1" parent="1" source="cSSFdk-GtkJdgTOAY-pE-3">
          <mxGeometry width="50" height="50" relative="1" as="geometry">
            <mxPoint x="500" y="280" as="sourcePoint" />
            <mxPoint x="290" y="250" as="targetPoint" />
            <Array as="points">
              <mxPoint x="450" y="280" />
              <mxPoint x="390" y="280" />
              <mxPoint x="340" y="270" />
            </Array>
          </mxGeometry>
        </mxCell>
        <mxCell id="cSSFdk-GtkJdgTOAY-pE-14" value="" style="curved=1;endArrow=classic;html=1;rounded=0;entryX=1;entryY=1;entryDx=0;entryDy=0;exitX=0;exitY=1;exitDx=0;exitDy=0;" edge="1" parent="1">
          <mxGeometry width="50" height="50" relative="1" as="geometry">
            <mxPoint x="793" y="257" as="sourcePoint" />
            <mxPoint x="580" y="250" as="targetPoint" />
            <Array as="points">
              <mxPoint x="740" y="280" />
              <mxPoint x="680" y="280" />
              <mxPoint x="630" y="270" />
            </Array>
          </mxGeometry>
        </mxCell>
        <mxCell id="cSSFdk-GtkJdgTOAY-pE-21" value="" style="group" vertex="1" connectable="0" parent="1">
          <mxGeometry x="800" y="200" width="140" height="50" as="geometry" />
        </mxCell>
        <mxCell id="cSSFdk-GtkJdgTOAY-pE-16" value="" style="line;strokeWidth=1;rotatable=0;dashed=0;labelPosition=right;align=left;verticalAlign=middle;spacingTop=0;spacingLeft=6;points=[];portConstraint=eastwest;" vertex="1" parent="cSSFdk-GtkJdgTOAY-pE-21">
          <mxGeometry width="60" height="10" as="geometry" />
        </mxCell>
        <mxCell id="cSSFdk-GtkJdgTOAY-pE-17" value="" style="line;strokeWidth=1;rotatable=0;dashed=0;labelPosition=right;align=left;verticalAlign=middle;spacingTop=0;spacingLeft=6;points=[];portConstraint=eastwest;" vertex="1" parent="cSSFdk-GtkJdgTOAY-pE-21">
          <mxGeometry y="40" width="60" height="10" as="geometry" />
        </mxCell>
        <mxCell id="cSSFdk-GtkJdgTOAY-pE-20" value="Histórico de transações financeiras" style="text;html=1;align=center;verticalAlign=middle;resizable=0;points=[];autosize=1;strokeColor=none;fillColor=none;" vertex="1" parent="cSSFdk-GtkJdgTOAY-pE-21">
          <mxGeometry x="-70" y="10" width="210" height="30" as="geometry" />
        </mxCell>
        <mxCell id="cSSFdk-GtkJdgTOAY-pE-22" value="Consultar registro de pagamento da mensalidade" style="ellipse;whiteSpace=wrap;html=1;aspect=fixed;" vertex="1" parent="1">
          <mxGeometry x="360" y="470" width="90" height="90" as="geometry" />
        </mxCell>
        <mxCell id="cSSFdk-GtkJdgTOAY-pE-23" value="" style="curved=1;endArrow=classic;html=1;rounded=0;" edge="1" parent="1">
          <mxGeometry width="50" height="50" relative="1" as="geometry">
            <mxPoint x="150" y="470" as="sourcePoint" />
            <mxPoint x="360" y="460" as="targetPoint" />
            <Array as="points">
              <mxPoint x="140" y="460" />
              <mxPoint x="270" y="420" />
            </Array>
          </mxGeometry>
        </mxCell>
        <mxCell id="cSSFdk-GtkJdgTOAY-pE-24" value="" style="curved=1;endArrow=classic;html=1;rounded=0;entryX=1;entryY=1;entryDx=0;entryDy=0;exitX=0;exitY=1;exitDx=0;exitDy=0;" edge="1" parent="1" source="cSSFdk-GtkJdgTOAY-pE-22">
          <mxGeometry width="50" height="50" relative="1" as="geometry">
            <mxPoint x="370" y="570" as="sourcePoint" />
            <mxPoint x="160" y="540" as="targetPoint" />
            <Array as="points">
              <mxPoint x="320" y="570" />
              <mxPoint x="260" y="570" />
              <mxPoint x="210" y="560" />
            </Array>
          </mxGeometry>
        </mxCell>
        <mxCell id="cSSFdk-GtkJdgTOAY-pE-25" value="" style="curved=1;endArrow=classic;html=1;rounded=0;entryX=1;entryY=1;entryDx=0;entryDy=0;" edge="1" parent="1">
          <mxGeometry width="50" height="50" relative="1" as="geometry">
            <mxPoint x="600" y="540" as="sourcePoint" />
            <mxPoint x="450" y="540" as="targetPoint" />
            <Array as="points">
              <mxPoint x="550" y="570" />
              <mxPoint x="500" y="560" />
            </Array>
          </mxGeometry>
        </mxCell>
        <mxCell id="cSSFdk-GtkJdgTOAY-pE-26" value="" style="group" vertex="1" connectable="0" parent="1">
          <mxGeometry x="580" y="485" width="140" height="50" as="geometry" />
        </mxCell>
        <mxCell id="cSSFdk-GtkJdgTOAY-pE-27" value="" style="line;strokeWidth=1;rotatable=0;dashed=0;labelPosition=right;align=left;verticalAlign=middle;spacingTop=0;spacingLeft=6;points=[];portConstraint=eastwest;" vertex="1" parent="cSSFdk-GtkJdgTOAY-pE-26">
          <mxGeometry width="60" height="10" as="geometry" />
        </mxCell>
        <mxCell id="cSSFdk-GtkJdgTOAY-pE-28" value="" style="line;strokeWidth=1;rotatable=0;dashed=0;labelPosition=right;align=left;verticalAlign=middle;spacingTop=0;spacingLeft=6;points=[];portConstraint=eastwest;" vertex="1" parent="cSSFdk-GtkJdgTOAY-pE-26">
          <mxGeometry y="40" width="60" height="10" as="geometry" />
        </mxCell>
        <mxCell id="cSSFdk-GtkJdgTOAY-pE-29" value="Histórico de transações financeiras" style="text;html=1;align=center;verticalAlign=middle;resizable=0;points=[];autosize=1;strokeColor=none;fillColor=none;" vertex="1" parent="cSSFdk-GtkJdgTOAY-pE-26">
          <mxGeometry x="-70" y="10" width="210" height="30" as="geometry" />
        </mxCell>
        <mxCell id="cSSFdk-GtkJdgTOAY-pE-30" value="Secretária" style="rounded=0;whiteSpace=wrap;html=1;" vertex="1" parent="1">
          <mxGeometry x="30" y="480" width="120" height="60" as="geometry" />
        </mxCell>
        <mxCell id="cSSFdk-GtkJdgTOAY-pE-31" value="Pagamento da mensalidade" style="ellipse;whiteSpace=wrap;html=1;aspect=fixed;" vertex="1" parent="1">
          <mxGeometry x="840" y="465" width="90" height="90" as="geometry" />
        </mxCell>
        <mxCell id="cSSFdk-GtkJdgTOAY-pE-32" value="" style="curved=1;endArrow=classic;html=1;rounded=0;entryX=1;entryY=1;entryDx=0;entryDy=0;exitX=0;exitY=1;exitDx=0;exitDy=0;" edge="1" parent="1">
          <mxGeometry width="50" height="50" relative="1" as="geometry">
            <mxPoint x="863" y="547" as="sourcePoint" />
            <mxPoint x="650" y="540" as="targetPoint" />
            <Array as="points">
              <mxPoint x="810" y="570" />
              <mxPoint x="750" y="570" />
              <mxPoint x="700" y="560" />
            </Array>
          </mxGeometry>
        </mxCell>
        <mxCell id="cSSFdk-GtkJdgTOAY-pE-34" value="Aluno" style="rounded=0;whiteSpace=wrap;html=1;" vertex="1" parent="1">
          <mxGeometry x="1030" y="485" width="120" height="60" as="geometry" />
        </mxCell>
        <mxCell id="cSSFdk-GtkJdgTOAY-pE-35" value="Solicita&lt;br/&gt;relatório de&lt;br/&gt;fechamento&lt;br/&gt;de caixa" style="text;html=1;align=center;verticalAlign=middle;whiteSpace=wrap;rounded=0;" vertex="1" parent="1">
          <mxGeometry x="280" y="90" width="110" height="30" as="geometry" />
        </mxCell>
        <mxCell id="cSSFdk-GtkJdgTOAY-pE-36" value="Relatório de&lt;br/&gt;fechamento&lt;br/&gt;de caixa" style="text;html=1;align=center;verticalAlign=middle;whiteSpace=wrap;rounded=0;" vertex="1" parent="1">
          <mxGeometry x="320" y="300" width="110" height="30" as="geometry" />
        </mxCell>
        <mxCell id="cSSFdk-GtkJdgTOAY-pE-37" value="Solicita&lt;br/&gt;registro de&lt;br/&gt;pagamento&lt;br/&gt;de&lt;br/&gt;mensalidade" style="text;html=1;align=center;verticalAlign=middle;whiteSpace=wrap;rounded=0;" vertex="1" parent="1">
          <mxGeometry x="120" y="374" width="130" height="40" as="geometry" />
        </mxCell>
        <mxCell id="cSSFdk-GtkJdgTOAY-pE-39" value="Mensagem&lt;br/&gt;de&lt;br/&gt;confirmação&lt;br/&gt;ou rejeição" style="text;html=1;align=center;verticalAlign=middle;whiteSpace=wrap;rounded=0;" vertex="1" parent="1">
          <mxGeometry x="190" y="590" width="130" height="40" as="geometry" />
        </mxCell>
        <mxCell id="cSSFdk-GtkJdgTOAY-pE-40" value="" style="curved=1;endArrow=classic;html=1;rounded=0;" edge="1" parent="1">
          <mxGeometry width="50" height="50" relative="1" as="geometry">
            <mxPoint x="1090" y="550" as="sourcePoint" />
            <mxPoint x="910" y="560" as="targetPoint" />
            <Array as="points">
              <mxPoint x="1060" y="600" />
              <mxPoint x="1000" y="600" />
              <mxPoint x="950" y="590" />
            </Array>
          </mxGeometry>
        </mxCell>
        <mxCell id="cSSFdk-GtkJdgTOAY-pE-42" value="Envio de dinheiro para a instituição" style="text;html=1;align=center;verticalAlign=middle;whiteSpace=wrap;rounded=0;" vertex="1" parent="1">
          <mxGeometry x="960" y="610" width="130" height="40" as="geometry" />
        </mxCell>
        <mxCell id="cSSFdk-GtkJdgTOAY-pE-43" value="Armazenamento do histórico de transação" style="text;html=1;align=center;verticalAlign=middle;whiteSpace=wrap;rounded=0;" vertex="1" parent="1">
          <mxGeometry x="700" y="590" width="130" height="40" as="geometry" />
        </mxCell>
        <mxCell id="cSSFdk-GtkJdgTOAY-pE-44" value="Consultar Cadastro de turmas" style="ellipse;whiteSpace=wrap;html=1;aspect=fixed;" vertex="1" parent="1">
          <mxGeometry x="220" y="1138" width="90" height="90" as="geometry" />
        </mxCell>
        <mxCell id="cSSFdk-GtkJdgTOAY-pE-45" value="" style="curved=1;endArrow=classic;html=1;rounded=0;" edge="1" parent="1">
          <mxGeometry width="50" height="50" relative="1" as="geometry">
            <mxPoint x="40" y="1138" as="sourcePoint" />
            <mxPoint x="250" y="1128" as="targetPoint" />
            <Array as="points">
              <mxPoint x="30" y="1128" />
              <mxPoint x="160" y="1088" />
            </Array>
          </mxGeometry>
        </mxCell>
        <mxCell id="cSSFdk-GtkJdgTOAY-pE-46" value="" style="curved=1;endArrow=classic;html=1;rounded=0;entryX=1;entryY=1;entryDx=0;entryDy=0;exitX=0;exitY=1;exitDx=0;exitDy=0;" edge="1" parent="1" source="cSSFdk-GtkJdgTOAY-pE-44">
          <mxGeometry width="50" height="50" relative="1" as="geometry">
            <mxPoint x="260" y="1238" as="sourcePoint" />
            <mxPoint x="50" y="1208" as="targetPoint" />
            <Array as="points">
              <mxPoint x="210" y="1238" />
              <mxPoint x="150" y="1238" />
              <mxPoint x="100" y="1228" />
            </Array>
          </mxGeometry>
        </mxCell>
        <mxCell id="cSSFdk-GtkJdgTOAY-pE-52" value="Secretária" style="rounded=0;whiteSpace=wrap;html=1;" vertex="1" parent="1">
          <mxGeometry y="1146" width="120" height="60" as="geometry" />
        </mxCell>
        <mxCell id="cSSFdk-GtkJdgTOAY-pE-53" value="Realizar prova" style="ellipse;whiteSpace=wrap;html=1;aspect=fixed;" vertex="1" parent="1">
          <mxGeometry x="870" y="1131" width="90" height="90" as="geometry" />
        </mxCell>
        <mxCell id="cSSFdk-GtkJdgTOAY-pE-54" value="" style="curved=1;endArrow=classic;html=1;rounded=0;exitX=0;exitY=1;exitDx=0;exitDy=0;entryX=0.502;entryY=0.495;entryDx=0;entryDy=0;entryPerimeter=0;" edge="1" parent="1" target="cSSFdk-GtkJdgTOAY-pE-73">
          <mxGeometry width="50" height="50" relative="1" as="geometry">
            <mxPoint x="901.5" y="1218" as="sourcePoint" />
            <mxPoint x="739" y="1200" as="targetPoint" />
            <Array as="points">
              <mxPoint x="860" y="1240" />
              <mxPoint x="840" y="1270" />
            </Array>
          </mxGeometry>
        </mxCell>
        <mxCell id="cSSFdk-GtkJdgTOAY-pE-55" value="Aluno" style="rounded=0;whiteSpace=wrap;html=1;" vertex="1" parent="1">
          <mxGeometry x="1025" y="1110" width="120" height="60" as="geometry" />
        </mxCell>
        <mxCell id="cSSFdk-GtkJdgTOAY-pE-56" value="Solicita cadastro&lt;br&gt;de Turmas" style="text;html=1;align=center;verticalAlign=middle;whiteSpace=wrap;rounded=0;" vertex="1" parent="1">
          <mxGeometry x="40" y="1042" width="130" height="40" as="geometry" />
        </mxCell>
        <mxCell id="cSSFdk-GtkJdgTOAY-pE-57" value="Lista de&lt;br/&gt;presença" style="text;html=1;align=center;verticalAlign=middle;whiteSpace=wrap;rounded=0;" vertex="1" parent="1">
          <mxGeometry x="80" y="1188" width="130" height="40" as="geometry" />
        </mxCell>
        <mxCell id="cSSFdk-GtkJdgTOAY-pE-58" value="" style="curved=1;endArrow=classic;html=1;rounded=0;exitX=0.5;exitY=1;exitDx=0;exitDy=0;" edge="1" parent="1" source="cSSFdk-GtkJdgTOAY-pE-55">
          <mxGeometry width="50" height="50" relative="1" as="geometry">
            <mxPoint x="1120" y="1216" as="sourcePoint" />
            <mxPoint x="940" y="1226" as="targetPoint" />
            <Array as="points">
              <mxPoint x="1080" y="1250" />
              <mxPoint x="1030" y="1266" />
              <mxPoint x="980" y="1256" />
            </Array>
          </mxGeometry>
        </mxCell>
        <mxCell id="cSSFdk-GtkJdgTOAY-pE-59" value="Se prepara para realizar a prova" style="text;html=1;align=center;verticalAlign=middle;whiteSpace=wrap;rounded=0;" vertex="1" parent="1">
          <mxGeometry x="980" y="1276" width="130" height="40" as="geometry" />
        </mxCell>
        <mxCell id="cSSFdk-GtkJdgTOAY-pE-61" style="edgeStyle=orthogonalEdgeStyle;rounded=0;orthogonalLoop=1;jettySize=auto;html=1;exitX=0.5;exitY=1;exitDx=0;exitDy=0;" edge="1" parent="1" source="cSSFdk-GtkJdgTOAY-pE-57" target="cSSFdk-GtkJdgTOAY-pE-57">
          <mxGeometry relative="1" as="geometry" />
        </mxCell>
        <mxCell id="cSSFdk-GtkJdgTOAY-pE-62" value="" style="curved=1;endArrow=classic;html=1;rounded=0;exitX=0.627;exitY=0.996;exitDx=0;exitDy=0;exitPerimeter=0;" edge="1" parent="1" source="cSSFdk-GtkJdgTOAY-pE-44">
          <mxGeometry width="50" height="50" relative="1" as="geometry">
            <mxPoint x="243" y="1265" as="sourcePoint" />
            <mxPoint y="1222" as="targetPoint" />
            <Array as="points">
              <mxPoint x="270" y="1272" />
              <mxPoint x="200" y="1292" />
              <mxPoint x="30" y="1282" />
            </Array>
          </mxGeometry>
        </mxCell>
        <mxCell id="cSSFdk-GtkJdgTOAY-pE-66" value="Planilha de notas" style="text;html=1;align=center;verticalAlign=middle;whiteSpace=wrap;rounded=0;" vertex="1" parent="1">
          <mxGeometry x="90" y="1252" width="130" height="40" as="geometry" />
        </mxCell>
        <mxCell id="cSSFdk-GtkJdgTOAY-pE-67" value="" style="group" vertex="1" connectable="0" parent="1">
          <mxGeometry x="510" y="1158" width="140" height="50" as="geometry" />
        </mxCell>
        <mxCell id="cSSFdk-GtkJdgTOAY-pE-68" value="" style="line;strokeWidth=1;rotatable=0;dashed=0;labelPosition=right;align=left;verticalAlign=middle;spacingTop=0;spacingLeft=6;points=[];portConstraint=eastwest;" vertex="1" parent="cSSFdk-GtkJdgTOAY-pE-67">
          <mxGeometry width="60" height="10" as="geometry" />
        </mxCell>
        <mxCell id="cSSFdk-GtkJdgTOAY-pE-69" value="" style="line;strokeWidth=1;rotatable=0;dashed=0;labelPosition=right;align=left;verticalAlign=middle;spacingTop=0;spacingLeft=6;points=[];portConstraint=eastwest;" vertex="1" parent="cSSFdk-GtkJdgTOAY-pE-67">
          <mxGeometry y="40" width="60" height="10" as="geometry" />
        </mxCell>
        <mxCell id="cSSFdk-GtkJdgTOAY-pE-70" value="Notas dos alunos" style="text;html=1;align=center;verticalAlign=middle;resizable=0;points=[];autosize=1;strokeColor=none;fillColor=none;" vertex="1" parent="cSSFdk-GtkJdgTOAY-pE-67">
          <mxGeometry x="-25" y="10" width="120" height="30" as="geometry" />
        </mxCell>
        <mxCell id="cSSFdk-GtkJdgTOAY-pE-79" style="edgeStyle=orthogonalEdgeStyle;rounded=0;orthogonalLoop=1;jettySize=auto;html=1;entryX=1;entryY=0.5;entryDx=0;entryDy=0;" edge="1" parent="1" source="cSSFdk-GtkJdgTOAY-pE-71" target="cSSFdk-GtkJdgTOAY-pE-76">
          <mxGeometry relative="1" as="geometry">
            <Array as="points">
              <mxPoint x="610" y="1297" />
            </Array>
          </mxGeometry>
        </mxCell>
        <mxCell id="cSSFdk-GtkJdgTOAY-pE-71" value="Professor" style="rounded=0;whiteSpace=wrap;html=1;" vertex="1" parent="1">
          <mxGeometry x="490" y="1430" width="120" height="60" as="geometry" />
        </mxCell>
        <mxCell id="cSSFdk-GtkJdgTOAY-pE-72" value="" style="group" vertex="1" connectable="0" parent="1">
          <mxGeometry x="760" y="1271" width="140" height="50" as="geometry" />
        </mxCell>
        <mxCell id="cSSFdk-GtkJdgTOAY-pE-73" value="" style="line;strokeWidth=1;rotatable=0;dashed=0;labelPosition=right;align=left;verticalAlign=middle;spacingTop=0;spacingLeft=6;points=[];portConstraint=eastwest;" vertex="1" parent="cSSFdk-GtkJdgTOAY-pE-72">
          <mxGeometry width="60" height="10" as="geometry" />
        </mxCell>
        <mxCell id="cSSFdk-GtkJdgTOAY-pE-74" value="" style="line;strokeWidth=1;rotatable=0;dashed=0;labelPosition=right;align=left;verticalAlign=middle;spacingTop=0;spacingLeft=6;points=[];portConstraint=eastwest;" vertex="1" parent="cSSFdk-GtkJdgTOAY-pE-72">
          <mxGeometry y="40" width="60" height="10" as="geometry" />
        </mxCell>
        <mxCell id="cSSFdk-GtkJdgTOAY-pE-75" value="Provas a serem corrigidas" style="text;html=1;align=center;verticalAlign=middle;resizable=0;points=[];autosize=1;strokeColor=none;fillColor=none;" vertex="1" parent="cSSFdk-GtkJdgTOAY-pE-72">
          <mxGeometry x="-45" y="10" width="160" height="30" as="geometry" />
        </mxCell>
        <mxCell id="cSSFdk-GtkJdgTOAY-pE-78" style="edgeStyle=orthogonalEdgeStyle;rounded=0;orthogonalLoop=1;jettySize=auto;html=1;exitX=0;exitY=0.5;exitDx=0;exitDy=0;entryX=0;entryY=0.5;entryDx=0;entryDy=0;" edge="1" parent="1" source="cSSFdk-GtkJdgTOAY-pE-76" target="cSSFdk-GtkJdgTOAY-pE-71">
          <mxGeometry relative="1" as="geometry" />
        </mxCell>
        <mxCell id="cSSFdk-GtkJdgTOAY-pE-76" value="Correção de provas" style="ellipse;whiteSpace=wrap;html=1;aspect=fixed;" vertex="1" parent="1">
          <mxGeometry x="500" y="1252" width="90" height="90" as="geometry" />
        </mxCell>
        <mxCell id="cSSFdk-GtkJdgTOAY-pE-77" value="" style="curved=1;endArrow=classic;html=1;rounded=0;" edge="1" parent="1">
          <mxGeometry width="50" height="50" relative="1" as="geometry">
            <mxPoint x="780" y="1316" as="sourcePoint" />
            <mxPoint x="600" y="1326" as="targetPoint" />
            <Array as="points">
              <mxPoint x="750" y="1366" />
              <mxPoint x="690" y="1366" />
              <mxPoint x="640" y="1356" />
            </Array>
          </mxGeometry>
        </mxCell>
        <mxCell id="cSSFdk-GtkJdgTOAY-pE-80" value="Entrega da prova" style="text;html=1;align=center;verticalAlign=middle;whiteSpace=wrap;rounded=0;" vertex="1" parent="1">
          <mxGeometry x="750" y="1212" width="130" height="40" as="geometry" />
        </mxCell>
        <mxCell id="cSSFdk-GtkJdgTOAY-pE-81" value="Consultar prova para correção" style="text;html=1;align=center;verticalAlign=middle;whiteSpace=wrap;rounded=0;" vertex="1" parent="1">
          <mxGeometry x="650" y="1370" width="130" height="40" as="geometry" />
        </mxCell>
        <mxCell id="cSSFdk-GtkJdgTOAY-pE-83" value="" style="curved=1;endArrow=classic;html=1;rounded=0;entryX=0.139;entryY=1.084;entryDx=0;entryDy=0;entryPerimeter=0;exitX=0.042;exitY=0.316;exitDx=0;exitDy=0;exitPerimeter=0;" edge="1" parent="1" source="cSSFdk-GtkJdgTOAY-pE-76" target="cSSFdk-GtkJdgTOAY-pE-70">
          <mxGeometry width="50" height="50" relative="1" as="geometry">
            <mxPoint x="560" y="1183" as="sourcePoint" />
            <mxPoint x="380" y="1193" as="targetPoint" />
            <Array as="points">
              <mxPoint x="480" y="1270" />
              <mxPoint x="460" y="1240" />
            </Array>
          </mxGeometry>
        </mxCell>
        <mxCell id="cSSFdk-GtkJdgTOAY-pE-84" value="Armazenamento do histórico de transação" style="text;html=1;align=center;verticalAlign=middle;whiteSpace=wrap;rounded=0;" vertex="1" parent="1">
          <mxGeometry x="410" y="1236" width="20" height="40" as="geometry" />
        </mxCell>
        <mxCell id="cSSFdk-GtkJdgTOAY-pE-85" style="edgeStyle=orthogonalEdgeStyle;rounded=0;orthogonalLoop=1;jettySize=auto;html=1;exitX=0;exitY=0.75;exitDx=0;exitDy=0;entryX=0;entryY=1;entryDx=0;entryDy=0;" edge="1" parent="1" source="cSSFdk-GtkJdgTOAY-pE-84" target="cSSFdk-GtkJdgTOAY-pE-84">
          <mxGeometry relative="1" as="geometry" />
        </mxCell>
        <mxCell id="cSSFdk-GtkJdgTOAY-pE-86" value="" style="curved=1;endArrow=classic;html=1;rounded=0;entryX=1;entryY=1;entryDx=0;entryDy=0;exitX=0;exitY=1;exitDx=0;exitDy=0;" edge="1" parent="1">
          <mxGeometry width="50" height="50" relative="1" as="geometry">
            <mxPoint x="500" y="1195" as="sourcePoint" />
            <mxPoint x="317" y="1188" as="targetPoint" />
            <Array as="points">
              <mxPoint x="477" y="1218" />
              <mxPoint x="417" y="1218" />
              <mxPoint x="367" y="1208" />
            </Array>
          </mxGeometry>
        </mxCell>
        <mxCell id="cSSFdk-GtkJdgTOAY-pE-87" value="" style="curved=1;endArrow=classic;html=1;rounded=0;exitX=0.5;exitY=0;exitDx=0;exitDy=0;" edge="1" parent="1" source="cSSFdk-GtkJdgTOAY-pE-55">
          <mxGeometry width="50" height="50" relative="1" as="geometry">
            <mxPoint x="960" y="670" as="sourcePoint" />
            <mxPoint x="820" y="990" as="targetPoint" />
            <Array as="points">
              <mxPoint x="1080" y="890" />
              <mxPoint x="970" y="850" />
              <mxPoint x="900" y="860" />
            </Array>
          </mxGeometry>
        </mxCell>
        <mxCell id="cSSFdk-GtkJdgTOAY-pE-88" value="Confirmar presença em sala de aula" style="ellipse;whiteSpace=wrap;html=1;aspect=fixed;" vertex="1" parent="1">
          <mxGeometry x="760" y="992" width="90" height="90" as="geometry" />
        </mxCell>
        <mxCell id="cSSFdk-GtkJdgTOAY-pE-89" value="Entrar na sala de aula" style="text;html=1;align=center;verticalAlign=middle;whiteSpace=wrap;rounded=0;" vertex="1" parent="1">
          <mxGeometry x="930" y="1002" width="130" height="40" as="geometry" />
        </mxCell>
        <mxCell id="cSSFdk-GtkJdgTOAY-pE-90" value="" style="group" vertex="1" connectable="0" parent="1">
          <mxGeometry x="505" y="1080" width="140" height="50" as="geometry" />
        </mxCell>
        <mxCell id="cSSFdk-GtkJdgTOAY-pE-91" value="" style="line;strokeWidth=1;rotatable=0;dashed=0;labelPosition=right;align=left;verticalAlign=middle;spacingTop=0;spacingLeft=6;points=[];portConstraint=eastwest;" vertex="1" parent="cSSFdk-GtkJdgTOAY-pE-90">
          <mxGeometry width="60" height="10" as="geometry" />
        </mxCell>
        <mxCell id="cSSFdk-GtkJdgTOAY-pE-92" value="" style="line;strokeWidth=1;rotatable=0;dashed=0;labelPosition=right;align=left;verticalAlign=middle;spacingTop=0;spacingLeft=6;points=[];portConstraint=eastwest;" vertex="1" parent="cSSFdk-GtkJdgTOAY-pE-90">
          <mxGeometry y="40" width="60" height="10" as="geometry" />
        </mxCell>
        <mxCell id="cSSFdk-GtkJdgTOAY-pE-93" value="Lista de chamada" style="text;html=1;align=center;verticalAlign=middle;resizable=0;points=[];autosize=1;strokeColor=none;fillColor=none;" vertex="1" parent="cSSFdk-GtkJdgTOAY-pE-90">
          <mxGeometry x="-25" y="10" width="120" height="30" as="geometry" />
        </mxCell>
        <mxCell id="cSSFdk-GtkJdgTOAY-pE-94" value="" style="curved=1;endArrow=classic;html=1;rounded=0;exitX=0;exitY=0;exitDx=0;exitDy=0;" edge="1" parent="1" source="cSSFdk-GtkJdgTOAY-pE-88">
          <mxGeometry width="50" height="50" relative="1" as="geometry">
            <mxPoint x="710" y="1070" as="sourcePoint" />
            <mxPoint x="530" y="1080" as="targetPoint" />
            <Array as="points">
              <mxPoint x="690" y="1005" />
              <mxPoint x="610" y="1005" />
            </Array>
          </mxGeometry>
        </mxCell>
        <mxCell id="cSSFdk-GtkJdgTOAY-pE-95" value="" style="curved=1;endArrow=classic;html=1;rounded=0;exitX=1.023;exitY=0.874;exitDx=0;exitDy=0;entryX=0.5;entryY=1;entryDx=0;entryDy=0;exitPerimeter=0;" edge="1" parent="1" source="cSSFdk-GtkJdgTOAY-pE-93" target="cSSFdk-GtkJdgTOAY-pE-88">
          <mxGeometry width="50" height="50" relative="1" as="geometry">
            <mxPoint x="900" y="1130" as="sourcePoint" />
            <mxPoint x="657" y="1205" as="targetPoint" />
            <Array as="points">
              <mxPoint x="737" y="1130" />
            </Array>
          </mxGeometry>
        </mxCell>
        <mxCell id="cSSFdk-GtkJdgTOAY-pE-96" value="" style="curved=1;endArrow=classic;html=1;rounded=0;entryX=1.013;entryY=0.366;entryDx=0;entryDy=0;exitX=0;exitY=1;exitDx=0;exitDy=0;entryPerimeter=0;" edge="1" parent="1" target="cSSFdk-GtkJdgTOAY-pE-44">
          <mxGeometry width="50" height="50" relative="1" as="geometry">
            <mxPoint x="518" y="1125" as="sourcePoint" />
            <mxPoint x="335" y="1118" as="targetPoint" />
            <Array as="points">
              <mxPoint x="495" y="1148" />
              <mxPoint x="440" y="1171" />
              <mxPoint x="400" y="1171" />
            </Array>
          </mxGeometry>
        </mxCell>
        <mxCell id="cSSFdk-GtkJdgTOAY-pE-97" value="Consultar cadastro de professores" style="ellipse;whiteSpace=wrap;html=1;aspect=fixed;" vertex="1" parent="1">
          <mxGeometry x="355" y="1780" width="90" height="90" as="geometry" />
        </mxCell>
        <mxCell id="cSSFdk-GtkJdgTOAY-pE-98" value="" style="curved=1;endArrow=classic;html=1;rounded=0;" edge="1" parent="1">
          <mxGeometry width="50" height="50" relative="1" as="geometry">
            <mxPoint x="145" y="1780" as="sourcePoint" />
            <mxPoint x="355" y="1770" as="targetPoint" />
            <Array as="points">
              <mxPoint x="135" y="1770" />
              <mxPoint x="265" y="1730" />
            </Array>
          </mxGeometry>
        </mxCell>
        <mxCell id="cSSFdk-GtkJdgTOAY-pE-99" value="" style="curved=1;endArrow=classic;html=1;rounded=0;entryX=1;entryY=1;entryDx=0;entryDy=0;exitX=0;exitY=1;exitDx=0;exitDy=0;" edge="1" parent="1" source="cSSFdk-GtkJdgTOAY-pE-97">
          <mxGeometry width="50" height="50" relative="1" as="geometry">
            <mxPoint x="365" y="1880" as="sourcePoint" />
            <mxPoint x="155" y="1850" as="targetPoint" />
            <Array as="points">
              <mxPoint x="315" y="1880" />
              <mxPoint x="255" y="1880" />
              <mxPoint x="205" y="1870" />
            </Array>
          </mxGeometry>
        </mxCell>
        <mxCell id="cSSFdk-GtkJdgTOAY-pE-100" value="" style="curved=1;endArrow=classic;html=1;rounded=0;entryX=1;entryY=1;entryDx=0;entryDy=0;" edge="1" parent="1">
          <mxGeometry width="50" height="50" relative="1" as="geometry">
            <mxPoint x="595" y="1850" as="sourcePoint" />
            <mxPoint x="445" y="1850" as="targetPoint" />
            <Array as="points">
              <mxPoint x="545" y="1880" />
              <mxPoint x="495" y="1870" />
            </Array>
          </mxGeometry>
        </mxCell>
        <mxCell id="cSSFdk-GtkJdgTOAY-pE-101" value="" style="group" vertex="1" connectable="0" parent="1">
          <mxGeometry x="575" y="1795" width="140" height="50" as="geometry" />
        </mxCell>
        <mxCell id="cSSFdk-GtkJdgTOAY-pE-102" value="" style="line;strokeWidth=1;rotatable=0;dashed=0;labelPosition=right;align=left;verticalAlign=middle;spacingTop=0;spacingLeft=6;points=[];portConstraint=eastwest;" vertex="1" parent="cSSFdk-GtkJdgTOAY-pE-101">
          <mxGeometry width="60" height="10" as="geometry" />
        </mxCell>
        <mxCell id="cSSFdk-GtkJdgTOAY-pE-103" value="" style="line;strokeWidth=1;rotatable=0;dashed=0;labelPosition=right;align=left;verticalAlign=middle;spacingTop=0;spacingLeft=6;points=[];portConstraint=eastwest;" vertex="1" parent="cSSFdk-GtkJdgTOAY-pE-101">
          <mxGeometry y="40" width="60" height="10" as="geometry" />
        </mxCell>
        <mxCell id="cSSFdk-GtkJdgTOAY-pE-104" value="Professores cadastrados" style="text;html=1;align=center;verticalAlign=middle;resizable=0;points=[];autosize=1;strokeColor=none;fillColor=none;" vertex="1" parent="cSSFdk-GtkJdgTOAY-pE-101">
          <mxGeometry x="-45" y="10" width="160" height="30" as="geometry" />
        </mxCell>
        <mxCell id="cSSFdk-GtkJdgTOAY-pE-105" value="Secretária" style="rounded=0;whiteSpace=wrap;html=1;" vertex="1" parent="1">
          <mxGeometry x="25" y="1790" width="120" height="60" as="geometry" />
        </mxCell>
        <mxCell id="cSSFdk-GtkJdgTOAY-pE-107" value="" style="curved=1;endArrow=classic;html=1;rounded=0;exitX=0;exitY=1;exitDx=0;exitDy=0;" edge="1" parent="1">
          <mxGeometry width="50" height="50" relative="1" as="geometry">
            <mxPoint x="890" y="1887" as="sourcePoint" />
            <mxPoint x="840" y="1960" as="targetPoint" />
            <Array as="points">
              <mxPoint x="890" y="1920" />
              <mxPoint x="880" y="1940" />
            </Array>
          </mxGeometry>
        </mxCell>
        <mxCell id="cSSFdk-GtkJdgTOAY-pE-108" value="Professor" style="rounded=0;whiteSpace=wrap;html=1;" vertex="1" parent="1">
          <mxGeometry x="1025" y="1795" width="120" height="60" as="geometry" />
        </mxCell>
        <mxCell id="cSSFdk-GtkJdgTOAY-pE-109" value="Mensagem de&lt;br/&gt;confirmação ou&lt;br/&gt;rejeição" style="text;html=1;align=center;verticalAlign=middle;whiteSpace=wrap;rounded=0;" vertex="1" parent="1">
          <mxGeometry x="180" y="1890" width="130" height="40" as="geometry" />
        </mxCell>
        <mxCell id="cSSFdk-GtkJdgTOAY-pE-110" value="" style="curved=1;endArrow=classic;html=1;rounded=0;" edge="1" parent="1">
          <mxGeometry width="50" height="50" relative="1" as="geometry">
            <mxPoint x="1085" y="1860" as="sourcePoint" />
            <mxPoint x="905" y="1870" as="targetPoint" />
            <Array as="points">
              <mxPoint x="1055" y="1910" />
              <mxPoint x="995" y="1910" />
              <mxPoint x="945" y="1900" />
            </Array>
          </mxGeometry>
        </mxCell>
        <mxCell id="cSSFdk-GtkJdgTOAY-pE-111" value="Envio de informações para a instituição" style="text;html=1;align=center;verticalAlign=middle;whiteSpace=wrap;rounded=0;" vertex="1" parent="1">
          <mxGeometry x="990" y="1925" width="130" height="40" as="geometry" />
        </mxCell>
        <mxCell id="cSSFdk-GtkJdgTOAY-pE-113" value="Solicita&lt;br/&gt;cadastro de&lt;br/&gt;Professores" style="text;html=1;align=center;verticalAlign=middle;whiteSpace=wrap;rounded=0;" vertex="1" parent="1">
          <mxGeometry x="155" y="1690" width="130" height="40" as="geometry" />
        </mxCell>
        <mxCell id="cSSFdk-GtkJdgTOAY-pE-114" value="" style="group" vertex="1" connectable="0" parent="1">
          <mxGeometry x="870" y="1820" width="140" height="50" as="geometry" />
        </mxCell>
        <mxCell id="cSSFdk-GtkJdgTOAY-pE-115" value="" style="line;strokeWidth=1;rotatable=0;dashed=0;labelPosition=right;align=left;verticalAlign=middle;spacingTop=0;spacingLeft=6;points=[];portConstraint=eastwest;" vertex="1" parent="cSSFdk-GtkJdgTOAY-pE-114">
          <mxGeometry width="60" height="10" as="geometry" />
        </mxCell>
        <mxCell id="cSSFdk-GtkJdgTOAY-pE-116" value="" style="line;strokeWidth=1;rotatable=0;dashed=0;labelPosition=right;align=left;verticalAlign=middle;spacingTop=0;spacingLeft=6;points=[];portConstraint=eastwest;" vertex="1" parent="cSSFdk-GtkJdgTOAY-pE-114">
          <mxGeometry y="40" width="60" height="10" as="geometry" />
        </mxCell>
        <mxCell id="cSSFdk-GtkJdgTOAY-pE-117" value="Dados dos professores" style="text;html=1;align=center;verticalAlign=middle;resizable=0;points=[];autosize=1;strokeColor=none;fillColor=none;" vertex="1" parent="cSSFdk-GtkJdgTOAY-pE-114">
          <mxGeometry x="-40" y="10" width="150" height="30" as="geometry" />
        </mxCell>
        <mxCell id="cSSFdk-GtkJdgTOAY-pE-120" style="edgeStyle=orthogonalEdgeStyle;rounded=0;orthogonalLoop=1;jettySize=auto;html=1;" edge="1" parent="1" source="cSSFdk-GtkJdgTOAY-pE-118">
          <mxGeometry relative="1" as="geometry">
            <mxPoint x="730" y="2080" as="targetPoint" />
          </mxGeometry>
        </mxCell>
        <mxCell id="cSSFdk-GtkJdgTOAY-pE-118" value="Cadastro de professor" style="ellipse;whiteSpace=wrap;html=1;aspect=fixed;" vertex="1" parent="1">
          <mxGeometry x="750" y="1925" width="90" height="90" as="geometry" />
        </mxCell>
        <mxCell id="cSSFdk-GtkJdgTOAY-pE-121" style="edgeStyle=orthogonalEdgeStyle;rounded=0;orthogonalLoop=1;jettySize=auto;html=1;entryX=1;entryY=0.5;entryDx=0;entryDy=0;" edge="1" parent="1" source="cSSFdk-GtkJdgTOAY-pE-119" target="cSSFdk-GtkJdgTOAY-pE-118">
          <mxGeometry relative="1" as="geometry">
            <Array as="points">
              <mxPoint x="860" y="2090" />
              <mxPoint x="860" y="1970" />
            </Array>
          </mxGeometry>
        </mxCell>
        <mxCell id="cSSFdk-GtkJdgTOAY-pE-119" value="Secretária" style="rounded=0;whiteSpace=wrap;html=1;" vertex="1" parent="1">
          <mxGeometry x="735" y="2060" width="120" height="60" as="geometry" />
        </mxCell>
        <mxCell id="cSSFdk-GtkJdgTOAY-pE-122" value="" style="curved=1;endArrow=classic;html=1;rounded=0;exitX=0.059;exitY=0.267;exitDx=0;exitDy=0;exitPerimeter=0;entryX=0.875;entryY=0.704;entryDx=0;entryDy=0;entryPerimeter=0;" edge="1" parent="1" source="cSSFdk-GtkJdgTOAY-pE-118" target="cSSFdk-GtkJdgTOAY-pE-103">
          <mxGeometry width="50" height="50" relative="1" as="geometry">
            <mxPoint x="690" y="1887" as="sourcePoint" />
            <mxPoint x="640" y="1960" as="targetPoint" />
            <Array as="points">
              <mxPoint x="700" y="1940" />
              <mxPoint x="650" y="1910" />
            </Array>
          </mxGeometry>
        </mxCell>
        <mxCell id="cSSFdk-GtkJdgTOAY-pE-123" value="Consulta de dados" style="text;html=1;align=center;verticalAlign=middle;whiteSpace=wrap;rounded=0;" vertex="1" parent="1">
          <mxGeometry x="860" y="1940" width="80" height="40" as="geometry" />
        </mxCell>
        <mxCell id="cSSFdk-GtkJdgTOAY-pE-125" value="" style="curved=1;endArrow=classic;html=1;rounded=0;" edge="1" parent="1">
          <mxGeometry width="50" height="50" relative="1" as="geometry">
            <mxPoint x="890" y="1820" as="sourcePoint" />
            <mxPoint x="1110" y="1790" as="targetPoint" />
            <Array as="points">
              <mxPoint x="890" y="1790" />
              <mxPoint x="1020" y="1750" />
            </Array>
          </mxGeometry>
        </mxCell>
        <mxCell id="cSSFdk-GtkJdgTOAY-pE-126" value="Solicitar informações extras" style="text;html=1;align=center;verticalAlign=middle;whiteSpace=wrap;rounded=0;" vertex="1" parent="1">
          <mxGeometry x="910" y="1710" width="130" height="40" as="geometry" />
        </mxCell>
        <mxCell id="cSSFdk-GtkJdgTOAY-pE-127" value="" style="curved=1;endArrow=classic;html=1;rounded=0;exitX=0.059;exitY=0.267;exitDx=0;exitDy=0;exitPerimeter=0;" edge="1" parent="1" target="cSSFdk-GtkJdgTOAY-pE-117">
          <mxGeometry width="50" height="50" relative="1" as="geometry">
            <mxPoint x="777" y="1925" as="sourcePoint" />
            <mxPoint x="650" y="1818" as="targetPoint" />
            <Array as="points">
              <mxPoint x="760" y="1870" />
            </Array>
          </mxGeometry>
        </mxCell>
        <mxCell id="cSSFdk-GtkJdgTOAY-pE-128" value="Corrigir dados" style="text;html=1;align=center;verticalAlign=middle;whiteSpace=wrap;rounded=0;" vertex="1" parent="1">
          <mxGeometry x="780" y="1880" width="60" height="40" as="geometry" />
        </mxCell>
        <mxCell id="cSSFdk-GtkJdgTOAY-pE-141" value="Registro de matricula" style="ellipse;whiteSpace=wrap;html=1;aspect=fixed;" vertex="1" parent="1">
          <mxGeometry x="560" y="2260" width="90" height="90" as="geometry" />
        </mxCell>
        <mxCell id="cSSFdk-GtkJdgTOAY-pE-142" value="Secretária" style="rounded=0;whiteSpace=wrap;html=1;" vertex="1" parent="1">
          <mxGeometry x="230" y="2260" width="120" height="60" as="geometry" />
        </mxCell>
        <mxCell id="cSSFdk-GtkJdgTOAY-pE-143" value="" style="curved=1;endArrow=classic;html=1;rounded=0;" edge="1" parent="1">
          <mxGeometry width="50" height="50" relative="1" as="geometry">
            <mxPoint x="350" y="2260" as="sourcePoint" />
            <mxPoint x="560" y="2250" as="targetPoint" />
            <Array as="points">
              <mxPoint x="340" y="2250" />
              <mxPoint x="470" y="2210" />
            </Array>
          </mxGeometry>
        </mxCell>
        <mxCell id="cSSFdk-GtkJdgTOAY-pE-144" value="" style="curved=1;endArrow=classic;html=1;rounded=0;entryX=1;entryY=1;entryDx=0;entryDy=0;exitX=0;exitY=1;exitDx=0;exitDy=0;" edge="1" parent="1" source="cSSFdk-GtkJdgTOAY-pE-141">
          <mxGeometry width="50" height="50" relative="1" as="geometry">
            <mxPoint x="570" y="2360" as="sourcePoint" />
            <mxPoint x="360" y="2330" as="targetPoint" />
            <Array as="points">
              <mxPoint x="520" y="2360" />
              <mxPoint x="460" y="2360" />
              <mxPoint x="410" y="2350" />
            </Array>
          </mxGeometry>
        </mxCell>
        <mxCell id="cSSFdk-GtkJdgTOAY-pE-145" value="" style="curved=1;endArrow=classic;html=1;rounded=0;entryX=1;entryY=1;entryDx=0;entryDy=0;exitX=0;exitY=1;exitDx=0;exitDy=0;" edge="1" parent="1">
          <mxGeometry width="50" height="50" relative="1" as="geometry">
            <mxPoint x="863" y="2337" as="sourcePoint" />
            <mxPoint x="650" y="2330" as="targetPoint" />
            <Array as="points">
              <mxPoint x="810" y="2360" />
              <mxPoint x="750" y="2360" />
              <mxPoint x="700" y="2350" />
            </Array>
          </mxGeometry>
        </mxCell>
        <mxCell id="cSSFdk-GtkJdgTOAY-pE-146" value="" style="group" vertex="1" connectable="0" parent="1">
          <mxGeometry x="870" y="2280" width="140" height="50" as="geometry" />
        </mxCell>
        <mxCell id="cSSFdk-GtkJdgTOAY-pE-147" value="" style="line;strokeWidth=1;rotatable=0;dashed=0;labelPosition=right;align=left;verticalAlign=middle;spacingTop=0;spacingLeft=6;points=[];portConstraint=eastwest;" vertex="1" parent="cSSFdk-GtkJdgTOAY-pE-146">
          <mxGeometry width="60" height="10" as="geometry" />
        </mxCell>
        <mxCell id="cSSFdk-GtkJdgTOAY-pE-148" value="" style="line;strokeWidth=1;rotatable=0;dashed=0;labelPosition=right;align=left;verticalAlign=middle;spacingTop=0;spacingLeft=6;points=[];portConstraint=eastwest;" vertex="1" parent="cSSFdk-GtkJdgTOAY-pE-146">
          <mxGeometry y="40" width="60" height="10" as="geometry" />
        </mxCell>
        <mxCell id="cSSFdk-GtkJdgTOAY-pE-149" value="Matriculas registradas" style="text;html=1;align=center;verticalAlign=middle;resizable=0;points=[];autosize=1;strokeColor=none;fillColor=none;" vertex="1" parent="cSSFdk-GtkJdgTOAY-pE-146">
          <mxGeometry x="-35" y="10" width="140" height="30" as="geometry" />
        </mxCell>
        <mxCell id="cSSFdk-GtkJdgTOAY-pE-150" value="Solicita registro de&lt;br/&gt;Matrícula" style="text;html=1;align=center;verticalAlign=middle;whiteSpace=wrap;rounded=0;" vertex="1" parent="1">
          <mxGeometry x="350" y="2170" width="110" height="30" as="geometry" />
        </mxCell>
        <mxCell id="cSSFdk-GtkJdgTOAY-pE-151" value="Mensagem de&lt;br/&gt;confirmação ou&lt;br/&gt;rejeição" style="text;html=1;align=center;verticalAlign=middle;whiteSpace=wrap;rounded=0;" vertex="1" parent="1">
          <mxGeometry x="390" y="2380" width="110" height="30" as="geometry" />
        </mxCell>
      </root>
    </mxGraphModel>
  </diagram>
</mxfile>
